<?xml version="1.0" encoding="UTF-8"?>
<!-- IST Americas full lockup, from "IST LOGO ROJO CON BLANCO CON SLOGAN.svg" (brand manual),
     with the design-guide exclusion-zone rect and the off-canvas placeholder <image> stripped out. -->
<svg xmlns="http://www.w3.org/2000/svg" viewBox="0 0 682 402.5">
  <defs>
    <style>
      .st0 {
        font-family: KavoRegular, Kavo, Arial, sans-serif;
        font-weight: 700;
        font-size: 110.4px;
      }

      .st0, .st1 {
        fill: #fff;
      }

      .st1 {
        font-family: OpenSans, 'Open Sans', Arial, sans-serif;
        font-size: 43.1px;
      }

      .st3 {
        stroke: #fff;
        stroke-width: 2px;
        stroke-miterlimit: 10;
      }

      .st5 {
        fill: #bb2332;
      }
    </style>
  </defs>
  <g>
    <path class="st5" d="M613.5,42.2c-.2-4.5-1.1-9.6-5.1-12-2.6-1.6-6-1.5-9-.7-3,.9-5.6,2.5-8.3,4-1.3.7-2.7,1.4-4,2.1l23.3,34.1c2.5-9,3.6-18.3,3.1-27.5Z"/>
    <path class="st5" d="M608,77.2l-26.6-39c-8.7,3.5-18,5.8-27.4,7l39.5,57.8c6.2-7.8,11.2-16.5,14.6-25.8h0Z"/>
    <path class="st5" d="M595.1,105.4l43,63,3,.3c7.5.5,15.6-2.2,21.4-7.2-10.8-1.4-21.5-6.1-29.2-13.6-8.2-8-10.6-19-17.9-27.3-5.6-6.4-12.7-11.2-20.3-15.2Z"/>
    <path class="st5" d="M654.2,215.7c1.8,1,3.9,1.8,6,2.3l-117.4-171.9c-4.9.2-9.8.2-14.6,0s-12.8-1.1-19.1-2.1l148.7,217.8c.2-1.4.3-2.9.5-4.3,6.7,6,11.5,13.5,14.1,21.8,1.9-4.7,1.1-9.6,0-14.2-3.8-16.9-8.7-34.7-18.3-49.2h0Z"/>
    <path class="st5" d="M464.7,33.1c-2.9-.9-5.7-1.7-8.5-2.4l126.7,185.5c11.2,7.5,20.6,16.5,28.1,27.1,10.8,13.8,17.9,28.6,20.4,43.9l12.3,18c3.7-4.9,6.6-10.2,8.6-15.7,1.7-4.5,2.8-9,3.7-13.5L495.6,41.3c-10.4-2.3-20.7-5.2-30.9-8.2h0Z"/>
    <path class="st5" d="M568.9,206.6L447.1,28.3c-6.6-1.7-13.1-3.2-20.1-5-6.1-1.6-12.3-3.1-18.5-4.4l113.1,165.6c17.4,5.9,33.3,13.4,47.3,22.2h0Z"/>
    <path class="st5" d="M632,305.7c.4,3.7,0,7.5-1.2,11.3,3.2-2,6.1-4.4,8.6-7.1l-7.2-10.5c0,2.1,0,4.2-.3,6.3h.1Z"/>
    <path class="st5" d="M379.7,40.9l-6-8.8,14.6-9.1,22.8,33.6h0c.8.5,1.5,1.1,2.2,1.6-.9-.4-1.7-.9-2.6-1.3l-14.1,8.8,72.9,106.8c1.6.2,3.2.4,4.8.7,11.2,1.7,22.1,4,32.5,6.9L395.3,16.7c-8.9-1-17.7-1-26.5.9-1.5.3-2.9.7-4.4,1.1l15.1,22.2h.2Z"/>
    <path class="st5" d="M380.4,59.3h0l9.6,14.1-12,7.5-19.7-29.1c-3.4-.9-6.8-2.2-9.7-3.4,2.6.2,5,.2,7.5,0l-.8-1.1,12-7.5-12.1-17.7c-8,3.4-15.6,7.9-23.1,12.4-.3,0-.5-.2-.8-.2l92.8,135.9c10.6-.4,21.6-.1,32.7.8l-76.3-111.7h-.1Z"/>
    <path class="st5" d="M323.5,34.3c-6.3-1-12.5-2.9-18.6-4.7-6.9-2.1-13.9-4.2-20.8-6.3l103.1,151c9.5-1.8,19.4-3.1,29.6-3.8l-93.1-136.3h-.2Z"/>
    <path class="st5" d="M377,176.6L269.3,18.8c-13.2-4-26.4-7.9-39.5-11.9-.3,0-.6-.2-1-.3l121.8,178.3c8.3-3.3,17.1-6.2,26.4-8.4h0Z"/>
    <path class="st5" d="M208.9,34.4c0,.2.1.5.2.7h0c1.1,4.4,2.7,8.6,4.2,12.9.3.5.5,1,.8,1.6l19.5,28.6c4.5,4.2,9.1,8.4,13.8,12.4-1.5.6-3.1.9-4.7,1.1l75.7,110.8c6.9-5,14.6-9.5,23-13.5L216.9,6.5c-4.3,1.9-7.6,6.2-8.8,10.8-1.4,5.1-.7,10.4.5,15.5.1.6.3,1.1.4,1.7h0Z"/>
    <path class="st5" d="M290,171.6l-54.9-80.4c-3.1-.7-6.1-2-8.6-3.7.8-2.1,1.3-4.4,1.5-6.7l-2.5-3.6c-2.7,1.4-5.1,3.4-6.9,5.8-2-3.2-7.8-2.9-10.9-.7-2.8,2-4.2,5.3-5,8.6l28.8,42.2c14.8,7.7,26.9,16.2,40.4,25.8,5.9,4.2,12.2,8.3,18.1,12.7h0Z"/>
    <path class="st5" d="M388.3,22.9l-14.6,9.1,6,8.8,3.2,4.7c.9,0,1.8,0,2.7.2,8.6,1.1,17.9,5.5,25.5,10.7h0l-22.8-33.6h0Z"/>
    <path class="st5" d="M390.7,49.7c1.6,3.1,1.5,5.8.3,7.8l5.5,8.1h0l14.1-8.9c-6.4-3.1-13.4-6.1-19.9-7Z"/>
    <path class="st5" d="M389.9,73.4l-9.6-14.1c-3.6-.7-5.8-.6-5.8-.6-.6-.3-1.2-.6-1.6-.9-.6-.4-5-4.7-4.3-4.9-3.1.4-6.8-.2-10.5-1.2l19.7,29.1,12-7.5h0Z"/>
    <path class="st5" d="M355.9,48.5c5.4-.4,10.5-1.5,15.6-2.2l-4.4-6.5h0l-12,7.5.8,1.1h0Z"/>
  </g>
  <g>
    <text class="st1" transform="translate(9.6 382.7)"><tspan x="0" y="0">The Threat Intelligence Company</tspan></text>
  </g>
  <text class="st0" transform="translate(8.3 317) scale(.8 1)"><tspan class="st3" x="0" y="0">IST</tspan><tspan x="159.2" y="0" xml:space="preserve"> AMERICAS</tspan></text>
  <rect class="st5" x="371.1" y="62.2" width="17.3" height="23.1" transform="translate(24 225.7) rotate(-34.1)"/>
  <rect class="st5" x="396.7" y="58.3" width="13.9" height="10.9" transform="translate(33.7 237.4) rotate(-34.1)"/>
  <rect class="st5" x="407.7" y="57" width="3.2" height="1.8" transform="translate(183 403.7) rotate(-64.9)"/>
  <rect class="st5" x="410.2" y="57.3" width="3" height="1.8" transform="translate(63.8 -169.4) rotate(25.1)"/>
</svg>
